<svg width="16" height="16" viewBox="0 0 16 16" fill="none" xmlns="http://www.w3.org/2000/svg">
<path d="M10.3333 9.33333H9.80665L9.61998 9.15333C10.0366 8.66931 10.3411 8.09918 10.5117 7.48374C10.6823 6.8683 10.7147 6.22277 10.6067 5.59333C10.2933 3.74 8.74665 2.26 6.87998 2.03333C6.22373 1.95031 5.55718 2.01851 4.93133 2.23272C4.30549 2.44694 3.73695 2.80148 3.2692 3.26922C2.80146 3.73696 2.44692 4.30551 2.23271 4.93135C2.0185 5.55719 1.95029 6.22374 2.03332 6.88C2.25998 8.74667 3.73998 10.2933 5.59332 10.6067C6.22275 10.7147 6.86829 10.6823 7.48373 10.5117C8.09917 10.3411 8.66929 10.0366 9.15332 9.62L9.33332 9.80667V10.3333L12.1667 13.1667C12.44 13.44 12.8867 13.44 13.16 13.1667C13.4333 12.8933 13.4333 12.4467 13.16 12.1733L10.3333 9.33333ZM6.33332 9.33333C4.67332 9.33333 3.33332 7.99333 3.33332 6.33333C3.33332 4.67333 4.67332 3.33333 6.33332 3.33333C7.99332 3.33333 9.33332 4.67333 9.33332 6.33333C9.33332 7.99333 7.99332 9.33333 6.33332 9.33333Z" fill="#3B378D"/>
</svg>
